<svg width="557" height="143" viewBox="0 0 557 143" fill="none" xmlns="http://www.w3.org/2000/svg">
<path d="M93.6329 102.732L70.6109 79.5239C67.6403 76.7389 63.927 75.2536 60.0281 75.2536C57.2432 75.2536 54.2726 75.9963 51.859 77.6673L36.0777 61.886V48.147L12.313 30.3235L0.430664 42.2058L18.2542 65.9706H31.8075L47.5888 81.9375C43.8755 87.693 44.4325 95.4908 49.6311 100.689L72.6531 123.711C73.7671 124.825 75.4381 125.568 76.9234 125.568C78.4087 125.568 79.894 124.825 81.0079 123.711L93.6329 111.086C96.0465 108.858 96.0465 104.96 93.6329 102.732ZM30.1366 59.8437V60.0294H21.2248L8.22846 42.7628L12.87 38.3069L30.1366 51.1176V59.8437ZM76.9234 119.441L53.7156 96.4191C52.0447 94.7481 51.1164 92.5202 51.1164 90.1066C51.1164 87.693 52.0447 85.4651 53.7156 83.7941C55.3866 82.1231 57.6145 81.1948 60.0281 81.1948C62.4417 81.1948 64.6697 82.1231 66.3406 83.7941L89.5484 107.002L76.9234 119.441ZM12.313 110.529C12.313 112.2 13.6127 113.5 15.2836 113.5C16.7689 113.5 18.2542 112.2 18.2542 110.529C18.2542 109.044 16.7689 107.559 15.2836 107.559C13.6127 107.559 12.313 109.044 12.313 110.529ZM51.6733 42.7628C55.9436 38.6783 61.5134 36.2647 67.2689 36.2647C68.5686 36.2647 69.8682 36.4503 71.1678 36.636L58.3572 49.6323L60.7708 65.0422L76.1807 67.4558L89.1771 54.6452C90.291 61.7003 88.0631 68.9411 83.0502 74.1397C81.3793 75.8106 79.5226 77.1103 77.4804 78.0386L81.7506 82.4945C83.7929 81.3805 85.4638 79.8952 87.1348 78.2242C94.1899 71.1691 96.9749 61.329 94.5612 51.6746C94.1899 49.818 92.7046 48.5183 91.0337 47.9614C89.1771 47.59 87.3204 47.9614 86.0208 49.261L74.1384 61.1433L65.9693 59.8437L64.6697 51.6746L76.552 39.7922C77.666 38.4926 78.223 36.636 77.8517 34.7794C77.2947 33.1084 75.8094 31.6231 74.1384 31.2518C64.484 28.8382 54.6439 31.6231 47.5888 38.6783C45.1752 41.0919 43.3186 43.8768 42.0189 46.8474V59.4724L46.1035 63.5569C44.2469 55.9448 46.2892 48.147 51.6733 42.7628ZM20.2965 117.213C17.1402 120.184 11.756 120.184 8.59979 117.213C5.44354 113.871 5.44354 108.673 8.59979 105.517L35.7064 78.4099L31.6219 74.3253L4.51523 101.432C-1.05463 106.816 -1.05463 115.914 4.51523 121.298C7.11449 124.083 10.6421 125.382 14.3553 125.382C18.2542 125.382 21.7818 124.083 24.381 121.298L43.3186 102.36C42.0189 100.689 41.0906 98.8327 40.348 96.9761L20.2965 117.213Z" fill="#0C5EFF"/>
<path d="M152.576 52.1473C159.23 52.1473 164.744 53.9217 169.116 57.4706C173.489 61.0194 176.182 65.7724 177.196 71.7294H168.071C167.437 67.9904 165.694 65.0753 162.842 62.984C160.054 60.8293 156.568 59.752 152.386 59.752C149.344 59.752 146.556 60.4491 144.021 61.8433C141.549 63.2375 139.553 65.3921 138.032 68.3073C136.511 71.159 135.751 74.7079 135.751 78.9539C135.751 83.1998 136.511 86.7804 138.032 89.6955C139.553 92.5473 141.549 94.6703 144.021 96.0645C146.556 97.4587 149.344 98.1558 152.386 98.1558C156.568 98.1558 160.054 97.0784 162.842 94.9238C165.694 92.7691 167.437 89.8223 168.071 86.0833H177.196C176.182 92.1037 173.489 96.8883 169.116 100.437C164.744 103.923 159.23 105.665 152.576 105.665C147.57 105.665 143.133 104.588 139.268 102.433C135.402 100.279 132.36 97.2052 130.142 93.2127C127.987 89.1569 126.91 84.4039 126.91 78.9539C126.91 73.5038 127.987 68.7509 130.142 64.695C132.36 60.6392 135.402 57.5339 139.268 55.3793C143.133 53.2246 147.57 52.1473 152.576 52.1473ZM212.187 52.1473C217.193 52.1473 221.661 53.2246 225.59 55.3793C229.583 57.5339 232.688 60.6392 234.906 64.695C237.187 68.7509 238.328 73.5038 238.328 78.9539C238.328 84.4039 237.187 89.1569 234.906 93.2127C232.688 97.2052 229.583 100.279 225.59 102.433C221.661 104.588 217.193 105.665 212.187 105.665C207.18 105.665 202.681 104.588 198.688 102.433C194.759 100.279 191.654 97.2052 189.373 93.2127C187.091 89.1569 185.951 84.4039 185.951 78.9539C185.951 73.5038 187.091 68.7509 189.373 64.695C191.654 60.6392 194.759 57.5339 198.688 55.3793C202.681 53.2246 207.18 52.1473 212.187 52.1473ZM212.187 59.752C209.082 59.752 206.198 60.4491 203.536 61.8433C200.938 63.2375 198.815 65.3921 197.167 68.3073C195.583 71.159 194.791 74.7079 194.791 78.9539C194.791 83.1365 195.583 86.6853 197.167 89.6005C198.815 92.4522 200.938 94.5752 203.536 95.9694C206.198 97.3636 209.082 98.0607 212.187 98.0607C215.292 98.0607 218.144 97.3636 220.742 95.9694C223.404 94.5752 225.527 92.4522 227.111 89.6005C228.759 86.6853 229.583 83.1365 229.583 78.9539C229.583 74.7079 228.759 71.159 227.111 68.3073C225.527 65.3921 223.404 63.2375 220.742 61.8433C218.144 60.4491 215.292 59.752 212.187 59.752ZM248.079 37.5082C248.079 35.9239 248.618 34.6564 249.695 33.7058C250.772 32.6919 252.198 32.1849 253.973 32.1849C255.747 32.1849 257.173 32.6919 258.25 33.7058C259.328 34.6564 259.866 35.9239 259.866 37.5082C259.866 39.0925 259.328 40.3916 258.25 41.4056C257.173 42.3562 255.747 42.8315 253.973 42.8315C252.198 42.8315 250.772 42.3562 249.695 41.4056C248.618 40.3916 248.079 39.0925 248.079 37.5082ZM258.25 52.8127V105H249.6V52.8127H258.25ZM299.63 51.9571C305.714 51.9571 310.625 53.9217 314.364 57.8508C318.103 61.7165 319.972 67.325 319.972 74.6762V105H311.322V75.4367C311.322 70.2401 309.991 66.2477 307.33 63.4593C304.668 60.6709 301.056 59.2767 296.493 59.2767C291.74 59.2767 287.938 60.8293 285.086 63.9346C282.234 66.9764 280.808 71.4442 280.808 77.3379V105H272.158V52.8127H280.808V65.1703C282.139 60.9244 284.484 57.6607 287.843 55.3793C291.265 53.0978 295.194 51.9571 299.63 51.9571ZM358.146 97.3953V105H351.682C346.359 105 342.366 103.733 339.705 101.198C337.106 98.6627 335.807 94.4168 335.807 88.4598V60.3223H328.012V52.8127H335.807V39.7896H344.553V52.8127H358.051V60.3223H344.553V88.6499C344.553 92.0086 345.155 94.3217 346.359 95.5892C347.626 96.7932 349.781 97.3953 352.823 97.3953H358.146ZM392.372 52.1473C397.378 52.1473 401.846 53.2246 405.775 55.3793C409.767 57.5339 412.873 60.6392 415.091 64.695C417.372 68.7509 418.513 73.5038 418.513 78.9539C418.513 84.4039 417.372 89.1569 415.091 93.2127C412.873 97.2052 409.767 100.279 405.775 102.433C401.846 104.588 397.378 105.665 392.372 105.665C387.365 105.665 382.866 104.588 378.873 102.433C374.944 100.279 371.839 97.2052 369.558 93.2127C367.276 89.1569 366.135 84.4039 366.135 78.9539C366.135 73.5038 367.276 68.7509 369.558 64.695C371.839 60.6392 374.944 57.5339 378.873 55.3793C382.866 53.2246 387.365 52.1473 392.372 52.1473ZM392.372 59.752C389.266 59.752 386.383 60.4491 383.721 61.8433C381.123 63.2375 379 65.3921 377.352 68.3073C375.768 71.159 374.976 74.7079 374.976 78.9539C374.976 83.1365 375.768 86.6853 377.352 89.6005C379 92.4522 381.123 94.5752 383.721 95.9694C386.383 97.3636 389.266 98.0607 392.372 98.0607C395.477 98.0607 398.329 97.3636 400.927 95.9694C403.589 94.5752 405.712 92.4522 407.296 89.6005C408.944 86.6853 409.767 83.1365 409.767 78.9539C409.767 74.7079 408.944 71.159 407.296 68.3073C405.712 65.3921 403.589 63.2375 400.927 61.8433C398.329 60.4491 395.477 59.752 392.372 59.752ZM453.454 52.1473C458.461 52.1473 462.929 53.2246 466.858 55.3793C470.85 57.5339 473.955 60.6392 476.174 64.695C478.455 68.7509 479.596 73.5038 479.596 78.9539C479.596 84.4039 478.455 89.1569 476.174 93.2127C473.955 97.2052 470.85 100.279 466.858 102.433C462.929 104.588 458.461 105.665 453.454 105.665C448.448 105.665 443.949 104.588 439.956 102.433C436.027 100.279 432.922 97.2052 430.64 93.2127C428.359 89.1569 427.218 84.4039 427.218 78.9539C427.218 73.5038 428.359 68.7509 430.64 64.695C432.922 60.6392 436.027 57.5339 439.956 55.3793C443.949 53.2246 448.448 52.1473 453.454 52.1473ZM453.454 59.752C450.349 59.752 447.466 60.4491 444.804 61.8433C442.206 63.2375 440.083 65.3921 438.435 68.3073C436.851 71.159 436.059 74.7079 436.059 78.9539C436.059 83.1365 436.851 86.6853 438.435 89.6005C440.083 92.4522 442.206 94.5752 444.804 95.9694C447.466 97.3636 450.349 98.0607 453.454 98.0607C456.56 98.0607 459.411 97.3636 462.01 95.9694C464.671 94.5752 466.794 92.4522 468.379 89.6005C470.026 86.6853 470.85 83.1365 470.85 78.9539C470.85 74.7079 470.026 71.159 468.379 68.3073C466.794 65.3921 464.671 63.2375 462.01 61.8433C459.411 60.4491 456.56 59.752 453.454 59.752ZM499.518 34.6564V105H490.868V34.6564H499.518ZM529.776 52.1473C535.669 52.1473 540.39 53.6999 543.939 56.8051C547.552 59.847 549.738 63.9662 550.498 69.1628H542.228C541.848 66.0575 540.549 63.5226 538.331 61.5581C536.176 59.5302 533.261 58.5162 529.585 58.5162C526.48 58.5162 524.04 59.2767 522.266 60.7976C520.555 62.2552 519.699 64.2514 519.699 66.7863C519.699 68.6875 520.27 70.2401 521.41 71.4442C522.614 72.5849 524.072 73.4721 525.783 74.1059C527.558 74.6762 529.966 75.3099 533.008 76.007C536.873 76.8943 539.979 77.8132 542.323 78.7637C544.732 79.651 546.759 81.1085 548.407 83.1365C550.118 85.1644 550.974 87.8894 550.974 91.3115C550.974 95.5575 549.358 99.0113 546.126 101.673C542.957 104.335 538.711 105.665 533.388 105.665C527.177 105.665 522.107 104.176 518.178 101.198C514.249 98.2191 511.936 94.0682 511.239 88.7449H519.604C519.921 91.9136 521.284 94.4801 523.692 96.4447C526.163 98.4092 529.395 99.3915 533.388 99.3915C536.366 99.3915 538.679 98.6311 540.327 97.1101C542.038 95.5892 542.894 93.5929 542.894 91.1214C542.894 89.0935 542.292 87.4775 541.088 86.2734C539.884 85.0693 538.394 84.1504 536.62 83.5167C534.845 82.883 532.406 82.2176 529.3 81.5205C525.435 80.6332 522.329 79.746 519.985 78.8588C517.703 77.9716 515.739 76.5774 514.091 74.6762C512.507 72.7117 511.714 70.0817 511.714 66.7863C511.714 62.4136 513.33 58.8964 516.562 56.2348C519.794 53.5098 524.199 52.1473 529.776 52.1473Z" fill="#0C5EFF"/>
</svg>
